<?xml version="1.0" standalone="no"?>
 <!DOCTYPE svg PUBLIC "-//W3C//DTD SVG 1.1//EN" 
 "http://www.w3.org/Graphics/SVG/1.1/DTD/svg11.dtd"> 
<svg
  xmlns:svg="http://www.w3.org/2000/svg"
  xmlns="http://www.w3.org/2000/svg"
  xmlns:xlink="http://www.w3.org/1999/xlink"
  version="1.1"
  width="3.728720cm" height="2.926080cm" viewBox="0 0 14680 11520">
<title>SVG Picture created as sensor-umidade-brd.svg date 2021/09/25 11:01:20 </title>
  <desc>Picture generated by PCBNEW </desc>
<g style="fill:#000000; fill-opacity:1;stroke:#000000; stroke-opacity:1;
stroke-linecap:round; stroke-linejoin:round;"
 transform="translate(0 0) scale(1 1)">
</g>
<g style="fill:#000000; fill-opacity:0.0; 
stroke:#000000; stroke-width:-0.000393701; stroke-opacity:1; 
stroke-linecap:round; stroke-linejoin:round;">
<g >
</g>
<g >
</g>
<g >
</g>
<g >
</g>
<g >
</g>
<g >
</g>
<g >
</g>
<g >
</g>
<g >
</g>
<g >
</g>
<g >
</g>
</g>
<g style="fill:#000000; fill-opacity:0.0; 
stroke:#000000; stroke-width:-0.000393701; stroke-opacity:1; 
stroke-linecap:round; stroke-linejoin:round;">
<g >
</g>
<g >
</g>
<g >
</g>
<g >
</g>
<g >
</g>
<g >
</g>
<g >
</g>
<g >
</g>
<g >
</g>
<g >
</g>
<g >
</g>
</g>
<g style="fill:#000000; fill-opacity:0.0; 
stroke:#000000; stroke-width:-0.000393701; stroke-opacity:1; 
stroke-linecap:round; stroke-linejoin:round;">
<g >
</g>
<g style="fill:#848400; fill-opacity:0.0; 
stroke:#848400; stroke-width:-0.000393701; stroke-opacity:1; 
stroke-linecap:round; stroke-linejoin:round;">
</g>
<g style="fill:#848400; fill-opacity:1.0; 
stroke:#848400; stroke-width:0; stroke-opacity:1; 
stroke-linecap:round; stroke-linejoin:round;">
<circle cx="1529.53" cy="3760.31" r="393.701" /> 
</g>
<g style="fill:#848400; fill-opacity:1.0; 
stroke:#848400; stroke-width:39.3701; stroke-opacity:1; 
stroke-linecap:round; stroke-linejoin:round;">
</g>
<g >
</g>
<g style="fill:#848400; fill-opacity:1.0; 
stroke:#848400; stroke-width:39.3701; stroke-opacity:1; 
stroke-linecap:round; stroke-linejoin:round;">
</g>
<g style="fill:#848400; fill-opacity:1.0; 
stroke:#848400; stroke-width:0; stroke-opacity:1; 
stroke-linecap:round; stroke-linejoin:round;">
<circle cx="1529.53" cy="7760.31" r="393.701" /> 
</g>
<g style="fill:#848400; fill-opacity:1.0; 
stroke:#848400; stroke-width:39.3701; stroke-opacity:1; 
stroke-linecap:round; stroke-linejoin:round;">
</g>
<g >
</g>
<g style="fill:#848400; fill-opacity:1.0; 
stroke:#848400; stroke-width:39.3701; stroke-opacity:1; 
stroke-linecap:round; stroke-linejoin:round;">
</g>
<g style="fill:#848400; fill-opacity:1.0; 
stroke:#848400; stroke-width:0; stroke-opacity:1; 
stroke-linecap:round; stroke-linejoin:round;">
<circle cx="13529.5" cy="6260.31" r="393.701" /> 
</g>
<g style="fill:#848400; fill-opacity:1.0; 
stroke:#848400; stroke-width:39.3701; stroke-opacity:1; 
stroke-linecap:round; stroke-linejoin:round;">
</g>
<g >
</g>
<g style="fill:#848400; fill-opacity:1.0; 
stroke:#848400; stroke-width:39.3701; stroke-opacity:1; 
stroke-linecap:round; stroke-linejoin:round;">
</g>
<g style="fill:#848400; fill-opacity:1.0; 
stroke:#848400; stroke-width:0; stroke-opacity:1; 
stroke-linecap:round; stroke-linejoin:round;">
<circle cx="13529.5" cy="4260.31" r="393.701" /> 
</g>
<g style="fill:#848400; fill-opacity:1.0; 
stroke:#848400; stroke-width:39.3701; stroke-opacity:1; 
stroke-linecap:round; stroke-linejoin:round;">
</g>
<g >
</g>
<g style="fill:#848400; fill-opacity:1.0; 
stroke:#848400; stroke-width:39.3701; stroke-opacity:1; 
stroke-linecap:round; stroke-linejoin:round;">
</g>
<g style="fill:#848400; fill-opacity:1.0; 
stroke:#848400; stroke-width:0; stroke-opacity:1; 
stroke-linecap:round; stroke-linejoin:round;">
<circle cx="8529.53" cy="6260.31" r="314.961" /> 
<circle cx="4529.53" cy="6260.31" r="314.961" /> 
</g>
<g style="fill:#848400; fill-opacity:1.0; 
stroke:#848400; stroke-width:39.3701; stroke-opacity:1; 
stroke-linecap:round; stroke-linejoin:round;">
</g>
<g >
</g>
<g style="fill:#848400; fill-opacity:1.0; 
stroke:#848400; stroke-width:39.3701; stroke-opacity:1; 
stroke-linecap:round; stroke-linejoin:round;">
</g>
<g style="fill:#848400; fill-opacity:1.0; 
stroke:#848400; stroke-width:0; stroke-opacity:1; 
stroke-linecap:round; stroke-linejoin:round;">
<circle cx="10529.5" cy="4254.41" r="314.961" /> 
<circle cx="6529.53" cy="4254.41" r="314.961" /> 
</g>
<g style="fill:#848400; fill-opacity:1.0; 
stroke:#848400; stroke-width:39.3701; stroke-opacity:1; 
stroke-linecap:round; stroke-linejoin:round;">
</g>
<g >
</g>
<g style="fill:#848400; fill-opacity:1.0; 
stroke:#848400; stroke-width:39.3701; stroke-opacity:1; 
stroke-linecap:round; stroke-linejoin:round;">
</g>
<g style="fill:#848400; fill-opacity:1.0; 
stroke:#848400; stroke-width:0; stroke-opacity:1; 
stroke-linecap:round; stroke-linejoin:round;">
<circle cx="11029.5" cy="6260.31" r="354.331" /> 
</g>
<g style="fill:#848400; fill-opacity:1.0; 
stroke:#848400; stroke-width:39.3701; stroke-opacity:1; 
stroke-linecap:round; stroke-linejoin:round;">
</g>
<g style="fill:#848400; fill-opacity:1.0; 
stroke:#848400; stroke-width:0; stroke-opacity:1; 
stroke-linecap:round; stroke-linejoin:round;">
<path style="fill:#848400; fill-opacity:1.0; 
stroke:#848400; stroke-width:0; stroke-opacity:1; 
stroke-linecap:round; stroke-linejoin:round;fill-rule:evenodd;"
d="M 9675.2,6614.64
9675.2,5905.98
10383.9,5905.98
10383.9,6614.64
Z" /> 
</g>
<g >
</g>
<g style="fill:#848400; fill-opacity:1.0; 
stroke:#848400; stroke-width:0; stroke-opacity:1; 
stroke-linecap:round; stroke-linejoin:round;">
</g>
<g style="fill:#848400; fill-opacity:1.0; 
stroke:#848400; stroke-width:413.386; stroke-opacity:1; 
stroke-linecap:round; stroke-linejoin:round;">
</g>
<g style="fill:#848400; fill-opacity:0.0; 
stroke:#848400; stroke-width:413.386; stroke-opacity:1; 
stroke-linecap:round; stroke-linejoin:round;">
<path d="M4440 4260
L4618 4260
" />
<path d="M4440 3760
L4618 3760
" />
</g>
<g style="fill:#848400; fill-opacity:0.0; 
stroke:#848400; stroke-width:0; stroke-opacity:1; 
stroke-linecap:round; stroke-linejoin:round;">
</g>
<g style="fill:#848400; fill-opacity:1.0; 
stroke:#848400; stroke-width:0; stroke-opacity:1; 
stroke-linecap:round; stroke-linejoin:round;">
<path style="fill:#848400; fill-opacity:1.0; 
stroke:#848400; stroke-width:0; stroke-opacity:1; 
stroke-linecap:round; stroke-linejoin:round;fill-rule:evenodd;"
d="M 4824.8,4967
4234.25,4967
4234.25,4553.62
4824.8,4553.62
Z" /> 
</g>
<g >
</g>
<g >
</g>
<g style="fill:#008400; fill-opacity:1.0; 
stroke:#008400; stroke-width:0; stroke-opacity:1; 
stroke-linecap:round; stroke-linejoin:round;">
</g>
<g style="fill:#008400; fill-opacity:1.0; 
stroke:#008400; stroke-width:393.701; stroke-opacity:1; 
stroke-linecap:round; stroke-linejoin:round;">
</g>
<g style="fill:#008400; fill-opacity:0.0; 
stroke:#008400; stroke-width:393.701; stroke-opacity:1; 
stroke-linecap:round; stroke-linejoin:round;">
<path d="M4535 4254
L4529 4260
" />
<path d="M6529 4254
L4535 4254
" />
<path d="M1529 3760
L4529 3760
" />
<path d="M4529 4760
L4529 6260
" />
<path d="M1529 7760
L11029 7760
" />
<path d="M11029 7760
L11029 6260
" />
<path d="M13529 6260
L11029 6260
" />
<path d="M8529 6260
L10029 6260
" />
<path d="M13523 4254
L13529 4260
" />
<path d="M10529 4254
L13523 4254
" />
</g>
<g >
</g>
</g>
<g style="fill:#FFFFFF; fill-opacity:0.0; 
stroke:#FFFFFF; stroke-width:393.701; stroke-opacity:1; 
stroke-linecap:round; stroke-linejoin:round;">
</g>
<g style="fill:#FFFFFF; fill-opacity:1.0; 
stroke:#FFFFFF; stroke-width:0; stroke-opacity:1; 
stroke-linecap:round; stroke-linejoin:round;">
<circle cx="1529.53" cy="3760.31" r="196.85" /> 
</g>
<g style="fill:#FFFFFF; fill-opacity:1.0; 
stroke:#FFFFFF; stroke-width:39.3701; stroke-opacity:1; 
stroke-linecap:round; stroke-linejoin:round;">
</g>
<g style="fill:#FFFFFF; fill-opacity:1.0; 
stroke:#FFFFFF; stroke-width:0; stroke-opacity:1; 
stroke-linecap:round; stroke-linejoin:round;">
<circle cx="1529.53" cy="7760.31" r="196.85" /> 
</g>
<g style="fill:#FFFFFF; fill-opacity:1.0; 
stroke:#FFFFFF; stroke-width:39.3701; stroke-opacity:1; 
stroke-linecap:round; stroke-linejoin:round;">
</g>
<g style="fill:#FFFFFF; fill-opacity:1.0; 
stroke:#FFFFFF; stroke-width:0; stroke-opacity:1; 
stroke-linecap:round; stroke-linejoin:round;">
<circle cx="13529.5" cy="6260.31" r="196.85" /> 
</g>
<g style="fill:#FFFFFF; fill-opacity:1.0; 
stroke:#FFFFFF; stroke-width:39.3701; stroke-opacity:1; 
stroke-linecap:round; stroke-linejoin:round;">
</g>
<g style="fill:#FFFFFF; fill-opacity:1.0; 
stroke:#FFFFFF; stroke-width:0; stroke-opacity:1; 
stroke-linecap:round; stroke-linejoin:round;">
<circle cx="13529.5" cy="4260.31" r="196.85" /> 
</g>
<g style="fill:#FFFFFF; fill-opacity:1.0; 
stroke:#FFFFFF; stroke-width:39.3701; stroke-opacity:1; 
stroke-linecap:round; stroke-linejoin:round;">
</g>
<g style="fill:#FFFFFF; fill-opacity:1.0; 
stroke:#FFFFFF; stroke-width:0; stroke-opacity:1; 
stroke-linecap:round; stroke-linejoin:round;">
<circle cx="8529.53" cy="6260.31" r="157.48" /> 
</g>
<g style="fill:#FFFFFF; fill-opacity:1.0; 
stroke:#FFFFFF; stroke-width:39.3701; stroke-opacity:1; 
stroke-linecap:round; stroke-linejoin:round;">
</g>
<g style="fill:#FFFFFF; fill-opacity:1.0; 
stroke:#FFFFFF; stroke-width:0; stroke-opacity:1; 
stroke-linecap:round; stroke-linejoin:round;">
<circle cx="4529.53" cy="6260.31" r="157.48" /> 
</g>
<g style="fill:#FFFFFF; fill-opacity:1.0; 
stroke:#FFFFFF; stroke-width:39.3701; stroke-opacity:1; 
stroke-linecap:round; stroke-linejoin:round;">
</g>
<g style="fill:#FFFFFF; fill-opacity:1.0; 
stroke:#FFFFFF; stroke-width:0; stroke-opacity:1; 
stroke-linecap:round; stroke-linejoin:round;">
<circle cx="10529.5" cy="4254.41" r="157.48" /> 
</g>
<g style="fill:#FFFFFF; fill-opacity:1.0; 
stroke:#FFFFFF; stroke-width:39.3701; stroke-opacity:1; 
stroke-linecap:round; stroke-linejoin:round;">
</g>
<g style="fill:#FFFFFF; fill-opacity:1.0; 
stroke:#FFFFFF; stroke-width:0; stroke-opacity:1; 
stroke-linecap:round; stroke-linejoin:round;">
<circle cx="6529.53" cy="4254.41" r="157.48" /> 
</g>
<g style="fill:#FFFFFF; fill-opacity:1.0; 
stroke:#FFFFFF; stroke-width:39.3701; stroke-opacity:1; 
stroke-linecap:round; stroke-linejoin:round;">
</g>
<g style="fill:#FFFFFF; fill-opacity:1.0; 
stroke:#FFFFFF; stroke-width:0; stroke-opacity:1; 
stroke-linecap:round; stroke-linejoin:round;">
<circle cx="11029.5" cy="6260.31" r="177.165" /> 
</g>
<g style="fill:#FFFFFF; fill-opacity:1.0; 
stroke:#FFFFFF; stroke-width:39.3701; stroke-opacity:1; 
stroke-linecap:round; stroke-linejoin:round;">
</g>
<g style="fill:#FFFFFF; fill-opacity:1.0; 
stroke:#FFFFFF; stroke-width:0; stroke-opacity:1; 
stroke-linecap:round; stroke-linejoin:round;">
<circle cx="10029.5" cy="6260.31" r="177.165" /> 
</g>
<g style="fill:#FFFFFF; fill-opacity:1.0; 
stroke:#FFFFFF; stroke-width:39.3701; stroke-opacity:1; 
stroke-linecap:round; stroke-linejoin:round;">
</g>
<g style="fill:#FFFFFF; fill-opacity:1.0; 
stroke:#FFFFFF; stroke-width:0; stroke-opacity:1; 
stroke-linecap:round; stroke-linejoin:round;">
<circle cx="4529.53" cy="4260.31" r="147.638" /> 
</g>
<g style="fill:#FFFFFF; fill-opacity:1.0; 
stroke:#FFFFFF; stroke-width:39.3701; stroke-opacity:1; 
stroke-linecap:round; stroke-linejoin:round;">
</g>
<g style="fill:#FFFFFF; fill-opacity:1.0; 
stroke:#FFFFFF; stroke-width:0; stroke-opacity:1; 
stroke-linecap:round; stroke-linejoin:round;">
<circle cx="4529.53" cy="3760.31" r="147.638" /> 
</g>
<g style="fill:#FFFFFF; fill-opacity:1.0; 
stroke:#FFFFFF; stroke-width:39.3701; stroke-opacity:1; 
stroke-linecap:round; stroke-linejoin:round;">
</g>
<g style="fill:#FFFFFF; fill-opacity:1.0; 
stroke:#FFFFFF; stroke-width:0; stroke-opacity:1; 
stroke-linecap:round; stroke-linejoin:round;">
<circle cx="4529.53" cy="4760.31" r="147.638" /> 
</g>
<g style="fill:#FFFFFF; fill-opacity:1.0; 
stroke:#FFFFFF; stroke-width:39.3701; stroke-opacity:1; 
stroke-linecap:round; stroke-linejoin:round;">
</g>
<g style="fill:#000000; fill-opacity:1.0; 
stroke:#000000; stroke-width:39.3701; stroke-opacity:1; 
stroke-linecap:round; stroke-linejoin:round;">
<g >
</g>
<g style="fill:#848400; fill-opacity:1.0; 
stroke:#848400; stroke-width:39.3701; stroke-opacity:1; 
stroke-linecap:round; stroke-linejoin:round;">
</g>
<g style="fill:#848400; fill-opacity:1.0; 
stroke:#848400; stroke-width:0; stroke-opacity:1; 
stroke-linecap:round; stroke-linejoin:round;">
<circle cx="1529.53" cy="3760.31" r="393.701" /> 
</g>
<g style="fill:#848400; fill-opacity:1.0; 
stroke:#848400; stroke-width:39.3701; stroke-opacity:1; 
stroke-linecap:round; stroke-linejoin:round;">
</g>
<g >
</g>
<g style="fill:#848400; fill-opacity:1.0; 
stroke:#848400; stroke-width:39.3701; stroke-opacity:1; 
stroke-linecap:round; stroke-linejoin:round;">
</g>
<g style="fill:#848400; fill-opacity:1.0; 
stroke:#848400; stroke-width:0; stroke-opacity:1; 
stroke-linecap:round; stroke-linejoin:round;">
<circle cx="1529.53" cy="7760.31" r="393.701" /> 
</g>
<g style="fill:#848400; fill-opacity:1.0; 
stroke:#848400; stroke-width:39.3701; stroke-opacity:1; 
stroke-linecap:round; stroke-linejoin:round;">
</g>
<g >
</g>
<g style="fill:#848400; fill-opacity:1.0; 
stroke:#848400; stroke-width:39.3701; stroke-opacity:1; 
stroke-linecap:round; stroke-linejoin:round;">
</g>
<g style="fill:#848400; fill-opacity:1.0; 
stroke:#848400; stroke-width:0; stroke-opacity:1; 
stroke-linecap:round; stroke-linejoin:round;">
<circle cx="13529.5" cy="6260.31" r="393.701" /> 
</g>
<g style="fill:#848400; fill-opacity:1.0; 
stroke:#848400; stroke-width:39.3701; stroke-opacity:1; 
stroke-linecap:round; stroke-linejoin:round;">
</g>
<g >
</g>
<g style="fill:#848400; fill-opacity:1.0; 
stroke:#848400; stroke-width:39.3701; stroke-opacity:1; 
stroke-linecap:round; stroke-linejoin:round;">
</g>
<g style="fill:#848400; fill-opacity:1.0; 
stroke:#848400; stroke-width:0; stroke-opacity:1; 
stroke-linecap:round; stroke-linejoin:round;">
<circle cx="13529.5" cy="4260.31" r="393.701" /> 
</g>
<g style="fill:#848400; fill-opacity:1.0; 
stroke:#848400; stroke-width:39.3701; stroke-opacity:1; 
stroke-linecap:round; stroke-linejoin:round;">
</g>
<g >
</g>
<g style="fill:#848400; fill-opacity:1.0; 
stroke:#848400; stroke-width:39.3701; stroke-opacity:1; 
stroke-linecap:round; stroke-linejoin:round;">
</g>
<g style="fill:#848400; fill-opacity:1.0; 
stroke:#848400; stroke-width:0; stroke-opacity:1; 
stroke-linecap:round; stroke-linejoin:round;">
<circle cx="8529.53" cy="6260.31" r="314.961" /> 
<circle cx="4529.53" cy="6260.31" r="314.961" /> 
</g>
<g style="fill:#848400; fill-opacity:1.0; 
stroke:#848400; stroke-width:39.3701; stroke-opacity:1; 
stroke-linecap:round; stroke-linejoin:round;">
</g>
<g >
</g>
<g style="fill:#848400; fill-opacity:1.0; 
stroke:#848400; stroke-width:39.3701; stroke-opacity:1; 
stroke-linecap:round; stroke-linejoin:round;">
</g>
<g style="fill:#848400; fill-opacity:1.0; 
stroke:#848400; stroke-width:0; stroke-opacity:1; 
stroke-linecap:round; stroke-linejoin:round;">
<circle cx="10529.5" cy="4254.41" r="314.961" /> 
<circle cx="6529.53" cy="4254.41" r="314.961" /> 
</g>
<g style="fill:#848400; fill-opacity:1.0; 
stroke:#848400; stroke-width:39.3701; stroke-opacity:1; 
stroke-linecap:round; stroke-linejoin:round;">
</g>
<g >
</g>
<g style="fill:#848400; fill-opacity:1.0; 
stroke:#848400; stroke-width:39.3701; stroke-opacity:1; 
stroke-linecap:round; stroke-linejoin:round;">
</g>
<g style="fill:#848400; fill-opacity:1.0; 
stroke:#848400; stroke-width:0; stroke-opacity:1; 
stroke-linecap:round; stroke-linejoin:round;">
<circle cx="11029.5" cy="6260.31" r="354.331" /> 
</g>
<g style="fill:#848400; fill-opacity:1.0; 
stroke:#848400; stroke-width:39.3701; stroke-opacity:1; 
stroke-linecap:round; stroke-linejoin:round;">
</g>
<g style="fill:#848400; fill-opacity:1.0; 
stroke:#848400; stroke-width:0; stroke-opacity:1; 
stroke-linecap:round; stroke-linejoin:round;">
<path style="fill:#848400; fill-opacity:1.0; 
stroke:#848400; stroke-width:0; stroke-opacity:1; 
stroke-linecap:round; stroke-linejoin:round;fill-rule:evenodd;"
d="M 9675.2,6614.64
9675.2,5905.98
10383.9,5905.98
10383.9,6614.64
Z" /> 
</g>
<g >
</g>
<g style="fill:#848400; fill-opacity:1.0; 
stroke:#848400; stroke-width:0; stroke-opacity:1; 
stroke-linecap:round; stroke-linejoin:round;">
</g>
<g style="fill:#848400; fill-opacity:1.0; 
stroke:#848400; stroke-width:413.386; stroke-opacity:1; 
stroke-linecap:round; stroke-linejoin:round;">
</g>
<g style="fill:#848400; fill-opacity:0.0; 
stroke:#848400; stroke-width:413.386; stroke-opacity:1; 
stroke-linecap:round; stroke-linejoin:round;">
<path d="M4440 4260
L4618 4260
" />
<path d="M4440 3760
L4618 3760
" />
</g>
<g style="fill:#848400; fill-opacity:0.0; 
stroke:#848400; stroke-width:0; stroke-opacity:1; 
stroke-linecap:round; stroke-linejoin:round;">
</g>
<g style="fill:#848400; fill-opacity:1.0; 
stroke:#848400; stroke-width:0; stroke-opacity:1; 
stroke-linecap:round; stroke-linejoin:round;">
<path style="fill:#848400; fill-opacity:1.0; 
stroke:#848400; stroke-width:0; stroke-opacity:1; 
stroke-linecap:round; stroke-linejoin:round;fill-rule:evenodd;"
d="M 4824.8,4967
4234.25,4967
4234.25,4553.62
4824.8,4553.62
Z" /> 
</g>
<g >
</g>
<g >
</g>
<g >
</g>
</g>
<g style="fill:#FFFFFF; fill-opacity:1.0; 
stroke:#FFFFFF; stroke-width:0; stroke-opacity:1; 
stroke-linecap:round; stroke-linejoin:round;">
<circle cx="1529.53" cy="3760.31" r="196.85" /> 
</g>
<g style="fill:#FFFFFF; fill-opacity:1.0; 
stroke:#FFFFFF; stroke-width:39.3701; stroke-opacity:1; 
stroke-linecap:round; stroke-linejoin:round;">
</g>
<g style="fill:#FFFFFF; fill-opacity:1.0; 
stroke:#FFFFFF; stroke-width:0; stroke-opacity:1; 
stroke-linecap:round; stroke-linejoin:round;">
<circle cx="1529.53" cy="7760.31" r="196.85" /> 
</g>
<g style="fill:#FFFFFF; fill-opacity:1.0; 
stroke:#FFFFFF; stroke-width:39.3701; stroke-opacity:1; 
stroke-linecap:round; stroke-linejoin:round;">
</g>
<g style="fill:#FFFFFF; fill-opacity:1.0; 
stroke:#FFFFFF; stroke-width:0; stroke-opacity:1; 
stroke-linecap:round; stroke-linejoin:round;">
<circle cx="13529.5" cy="6260.31" r="196.85" /> 
</g>
<g style="fill:#FFFFFF; fill-opacity:1.0; 
stroke:#FFFFFF; stroke-width:39.3701; stroke-opacity:1; 
stroke-linecap:round; stroke-linejoin:round;">
</g>
<g style="fill:#FFFFFF; fill-opacity:1.0; 
stroke:#FFFFFF; stroke-width:0; stroke-opacity:1; 
stroke-linecap:round; stroke-linejoin:round;">
<circle cx="13529.5" cy="4260.31" r="196.85" /> 
</g>
<g style="fill:#FFFFFF; fill-opacity:1.0; 
stroke:#FFFFFF; stroke-width:39.3701; stroke-opacity:1; 
stroke-linecap:round; stroke-linejoin:round;">
</g>
<g style="fill:#FFFFFF; fill-opacity:1.0; 
stroke:#FFFFFF; stroke-width:0; stroke-opacity:1; 
stroke-linecap:round; stroke-linejoin:round;">
<circle cx="8529.53" cy="6260.31" r="157.48" /> 
</g>
<g style="fill:#FFFFFF; fill-opacity:1.0; 
stroke:#FFFFFF; stroke-width:39.3701; stroke-opacity:1; 
stroke-linecap:round; stroke-linejoin:round;">
</g>
<g style="fill:#FFFFFF; fill-opacity:1.0; 
stroke:#FFFFFF; stroke-width:0; stroke-opacity:1; 
stroke-linecap:round; stroke-linejoin:round;">
<circle cx="4529.53" cy="6260.31" r="157.48" /> 
</g>
<g style="fill:#FFFFFF; fill-opacity:1.0; 
stroke:#FFFFFF; stroke-width:39.3701; stroke-opacity:1; 
stroke-linecap:round; stroke-linejoin:round;">
</g>
<g style="fill:#FFFFFF; fill-opacity:1.0; 
stroke:#FFFFFF; stroke-width:0; stroke-opacity:1; 
stroke-linecap:round; stroke-linejoin:round;">
<circle cx="10529.5" cy="4254.41" r="157.48" /> 
</g>
<g style="fill:#FFFFFF; fill-opacity:1.0; 
stroke:#FFFFFF; stroke-width:39.3701; stroke-opacity:1; 
stroke-linecap:round; stroke-linejoin:round;">
</g>
<g style="fill:#FFFFFF; fill-opacity:1.0; 
stroke:#FFFFFF; stroke-width:0; stroke-opacity:1; 
stroke-linecap:round; stroke-linejoin:round;">
<circle cx="6529.53" cy="4254.41" r="157.48" /> 
</g>
<g style="fill:#FFFFFF; fill-opacity:1.0; 
stroke:#FFFFFF; stroke-width:39.3701; stroke-opacity:1; 
stroke-linecap:round; stroke-linejoin:round;">
</g>
<g style="fill:#FFFFFF; fill-opacity:1.0; 
stroke:#FFFFFF; stroke-width:0; stroke-opacity:1; 
stroke-linecap:round; stroke-linejoin:round;">
<circle cx="11029.5" cy="6260.31" r="177.165" /> 
</g>
<g style="fill:#FFFFFF; fill-opacity:1.0; 
stroke:#FFFFFF; stroke-width:39.3701; stroke-opacity:1; 
stroke-linecap:round; stroke-linejoin:round;">
</g>
<g style="fill:#FFFFFF; fill-opacity:1.0; 
stroke:#FFFFFF; stroke-width:0; stroke-opacity:1; 
stroke-linecap:round; stroke-linejoin:round;">
<circle cx="10029.5" cy="6260.31" r="177.165" /> 
</g>
<g style="fill:#FFFFFF; fill-opacity:1.0; 
stroke:#FFFFFF; stroke-width:39.3701; stroke-opacity:1; 
stroke-linecap:round; stroke-linejoin:round;">
</g>
<g style="fill:#FFFFFF; fill-opacity:1.0; 
stroke:#FFFFFF; stroke-width:0; stroke-opacity:1; 
stroke-linecap:round; stroke-linejoin:round;">
<circle cx="4529.53" cy="4260.31" r="147.638" /> 
</g>
<g style="fill:#FFFFFF; fill-opacity:1.0; 
stroke:#FFFFFF; stroke-width:39.3701; stroke-opacity:1; 
stroke-linecap:round; stroke-linejoin:round;">
</g>
<g style="fill:#FFFFFF; fill-opacity:1.0; 
stroke:#FFFFFF; stroke-width:0; stroke-opacity:1; 
stroke-linecap:round; stroke-linejoin:round;">
<circle cx="4529.53" cy="3760.31" r="147.638" /> 
</g>
<g style="fill:#FFFFFF; fill-opacity:1.0; 
stroke:#FFFFFF; stroke-width:39.3701; stroke-opacity:1; 
stroke-linecap:round; stroke-linejoin:round;">
</g>
<g style="fill:#FFFFFF; fill-opacity:1.0; 
stroke:#FFFFFF; stroke-width:0; stroke-opacity:1; 
stroke-linecap:round; stroke-linejoin:round;">
<circle cx="4529.53" cy="4760.31" r="147.638" /> 
</g>
<g style="fill:#FFFFFF; fill-opacity:1.0; 
stroke:#FFFFFF; stroke-width:39.3701; stroke-opacity:1; 
stroke-linecap:round; stroke-linejoin:round;">
</g>
<g style="fill:#000000; fill-opacity:1.0; 
stroke:#000000; stroke-width:39.3701; stroke-opacity:1; 
stroke-linecap:round; stroke-linejoin:round;">
<g >
</g>
<g >
</g>
<g >
</g>
<g >
</g>
<g >
</g>
<g >
</g>
<g >
</g>
<g >
</g>
<g >
</g>
<g >
</g>
<g >
</g>
</g>
<g style="fill:#000000; fill-opacity:1.0; 
stroke:#000000; stroke-width:39.3701; stroke-opacity:1; 
stroke-linecap:round; stroke-linejoin:round;">
</g>
<g style="fill:#363435; fill-opacity:1.0; 
stroke:#363435; stroke-width:39.3701; stroke-opacity:1; 
stroke-linecap:round; stroke-linejoin:round;">
</g>
<g style="fill:#363435; fill-opacity:0.0; 
stroke:#363435; stroke-width:39.3701; stroke-opacity:1; 
stroke-linecap:round; stroke-linejoin:round;">
</g>
<g style="fill:#363435; fill-opacity:0.0; 
stroke:#363435; stroke-width:59.0551; stroke-opacity:1; 
stroke-linecap:round; stroke-linejoin:round;">
<text x="7529.53" y="8957.16"
textLength="13200.1" font-size="524.934" lengthAdjust="spacingAndGlyphs"
text-anchor="middle" opacity="0">robotizando.com.br/pt-br/agua-na-planta</text>
<path d="M1061 8938
L1061 8675
" />
<path d="M1061 8750
L1080 8713
L1099 8694
L1136 8675
L1174 8675
" />
<path d="M1361 8938
L1324 8919
L1305 8900
L1286 8863
L1286 8750
L1305 8713
L1324 8694
L1361 8675
L1417 8675
L1455 8694
L1474 8713
L1492 8750
L1492 8863
L1474 8900
L1455 8919
L1417 8938
L1361 8938
" />
<path d="M1661 8938
L1661 8544
" />
<path d="M1661 8694
L1699 8675
L1773 8675
L1811 8694
L1830 8713
L1848 8750
L1848 8863
L1830 8900
L1811 8919
L1773 8938
L1699 8938
L1661 8919
" />
<path d="M2073 8938
L2036 8919
L2017 8900
L1998 8863
L1998 8750
L2017 8713
L2036 8694
L2073 8675
L2130 8675
L2167 8694
L2186 8713
L2205 8750
L2205 8863
L2186 8900
L2167 8919
L2130 8938
L2073 8938
" />
<path d="M2317 8675
L2467 8675
" />
<path d="M2373 8544
L2373 8882
L2392 8919
L2430 8938
L2467 8938
" />
<path d="M2598 8938
L2598 8675
" />
<path d="M2598 8544
L2580 8563
L2598 8582
L2617 8563
L2598 8544
L2598 8582
" />
<path d="M2748 8675
L2955 8675
L2748 8938
L2955 8938
" />
<path d="M3273 8938
L3273 8732
L3255 8694
L3217 8675
L3142 8675
L3105 8694
" />
<path d="M3273 8919
L3236 8938
L3142 8938
L3105 8919
L3086 8882
L3086 8844
L3105 8807
L3142 8788
L3236 8788
L3273 8769
" />
<path d="M3461 8675
L3461 8938
" />
<path d="M3461 8713
L3480 8694
L3517 8675
L3573 8675
L3611 8694
L3630 8732
L3630 8938
" />
<path d="M3986 8938
L3986 8544
" />
<path d="M3986 8919
L3948 8938
L3873 8938
L3836 8919
L3817 8900
L3798 8863
L3798 8750
L3817 8713
L3836 8694
L3873 8675
L3948 8675
L3986 8694
" />
<path d="M4229 8938
L4192 8919
L4173 8900
L4154 8863
L4154 8750
L4173 8713
L4192 8694
L4229 8675
L4286 8675
L4323 8694
L4342 8713
L4361 8750
L4361 8863
L4342 8900
L4323 8919
L4286 8938
L4229 8938
" />
<path d="M4529 8900
L4548 8919
L4529 8938
L4511 8919
L4529 8900
L4529 8938
" />
<path d="M4886 8919
L4848 8938
L4773 8938
L4736 8919
L4717 8900
L4698 8863
L4698 8750
L4717 8713
L4736 8694
L4773 8675
L4848 8675
L4886 8694
" />
<path d="M5111 8938
L5073 8919
L5054 8900
L5036 8863
L5036 8750
L5054 8713
L5073 8694
L5111 8675
L5167 8675
L5204 8694
L5223 8713
L5242 8750
L5242 8863
L5223 8900
L5204 8919
L5167 8938
L5111 8938
" />
<path d="M5411 8938
L5411 8675
" />
<path d="M5411 8713
L5429 8694
L5467 8675
L5523 8675
L5561 8694
L5579 8732
L5579 8938
" />
<path d="M5579 8732
L5598 8694
L5636 8675
L5692 8675
L5729 8694
L5748 8732
L5748 8938
" />
<path d="M5935 8900
L5954 8919
L5935 8938
L5917 8919
L5935 8900
L5935 8938
" />
<path d="M6123 8938
L6123 8544
" />
<path d="M6123 8694
L6160 8675
L6235 8675
L6273 8694
L6292 8713
L6310 8750
L6310 8863
L6292 8900
L6273 8919
L6235 8938
L6160 8938
L6123 8919
" />
<path d="M6479 8938
L6479 8675
" />
<path d="M6479 8750
L6498 8713
L6517 8694
L6554 8675
L6592 8675
" />
<path d="M7004 8525
L6667 9032
" />
<path d="M7135 8675
L7135 9069
" />
<path d="M7135 8694
L7173 8675
L7248 8675
L7285 8694
L7304 8713
L7323 8750
L7323 8863
L7304 8900
L7285 8919
L7248 8938
L7173 8938
L7135 8919
" />
<path d="M7435 8675
L7585 8675
" />
<path d="M7492 8544
L7492 8882
L7510 8919
L7548 8938
L7585 8938
" />
<path d="M7717 8788
L8016 8788
" />
<path d="M8204 8938
L8204 8544
" />
<path d="M8204 8694
L8241 8675
L8316 8675
L8354 8694
L8373 8713
L8391 8750
L8391 8863
L8373 8900
L8354 8919
L8316 8938
L8241 8938
L8204 8919
" />
<path d="M8560 8938
L8560 8675
" />
<path d="M8560 8750
L8579 8713
L8598 8694
L8635 8675
L8673 8675
" />
<path d="M9085 8525
L8748 9032
" />
<path d="M9385 8938
L9385 8732
L9366 8694
L9329 8675
L9254 8675
L9216 8694
" />
<path d="M9385 8919
L9348 8938
L9254 8938
L9216 8919
L9198 8882
L9198 8844
L9216 8807
L9254 8788
L9348 8788
L9385 8769
" />
<path d="M9741 8675
L9741 8994
L9723 9032
L9704 9050
L9666 9069
L9610 9069
L9573 9050
" />
<path d="M9741 8919
L9704 8938
L9629 8938
L9591 8919
L9573 8900
L9554 8863
L9554 8750
L9573 8713
L9591 8694
L9629 8675
L9704 8675
L9741 8694
" />
<path d="M10097 8675
L10097 8938
" />
<path d="M9929 8675
L9929 8882
L9947 8919
L9985 8938
L10041 8938
L10079 8919
L10097 8900
" />
<path d="M10454 8938
L10454 8732
L10435 8694
L10397 8675
L10322 8675
L10285 8694
" />
<path d="M10454 8919
L10416 8938
L10322 8938
L10285 8919
L10266 8882
L10266 8844
L10285 8807
L10322 8788
L10416 8788
L10454 8769
" />
<path d="M10641 8788
L10941 8788
" />
<path d="M11129 8675
L11129 8938
" />
<path d="M11129 8713
L11147 8694
L11185 8675
L11241 8675
L11279 8694
L11297 8732
L11297 8938
" />
<path d="M11654 8938
L11654 8732
L11635 8694
L11597 8675
L11522 8675
L11485 8694
" />
<path d="M11654 8919
L11616 8938
L11522 8938
L11485 8919
L11466 8882
L11466 8844
L11485 8807
L11522 8788
L11616 8788
L11654 8769
" />
<path d="M11841 8788
L12141 8788
" />
<path d="M12328 8675
L12328 9069
" />
<path d="M12328 8694
L12366 8675
L12441 8675
L12478 8694
L12497 8713
L12516 8750
L12516 8863
L12497 8900
L12478 8919
L12441 8938
L12366 8938
L12328 8919
" />
<path d="M12741 8938
L12703 8919
L12685 8882
L12685 8544
" />
<path d="M13060 8938
L13060 8732
L13041 8694
L13003 8675
L12928 8675
L12891 8694
" />
<path d="M13060 8919
L13022 8938
L12928 8938
L12891 8919
L12872 8882
L12872 8844
L12891 8807
L12928 8788
L13022 8788
L13060 8769
" />
<path d="M13247 8675
L13247 8938
" />
<path d="M13247 8713
L13266 8694
L13303 8675
L13360 8675
L13397 8694
L13416 8732
L13416 8938
" />
<path d="M13547 8675
L13697 8675
" />
<path d="M13603 8544
L13603 8882
L13622 8919
L13660 8938
L13697 8938
" />
<path d="M13997 8938
L13997 8732
L13978 8694
L13941 8675
L13866 8675
L13828 8694
" />
<path d="M13997 8919
L13959 8938
L13866 8938
L13828 8919
L13809 8882
L13809 8844
L13828 8807
L13866 8788
L13959 8788
L13997 8769
" />
</g>
<g style="fill:#363435; fill-opacity:0.0; 
stroke:#363435; stroke-width:47.2441; stroke-opacity:1; 
stroke-linecap:round; stroke-linejoin:round;">
<circle cx="1529.53" cy="3760.31" r="492.52" /> 
<circle cx="1529.53" cy="7760.31" r="492.52" /> 
<circle cx="13529.5" cy="6260.31" r="492.52" /> 
<circle cx="13529.5" cy="4260.31" r="492.52" /> 
<path d="M8120 6260
L7816 6260
" />
<path d="M4938 6260
L5242 6260
" />
<path d="M7816 5720
L5242 5720
" />
<path d="M7816 6799
L7816 5720
" />
<path d="M5242 6799
L7816 6799
" />
<path d="M5242 5720
L5242 6799
" />
<path d="M10120 4254
L9816 4254
" />
<path d="M6938 4254
L7242 4254
" />
<path d="M9816 3715
L7242 3715
" />
<path d="M9816 4793
L9816 3715
" />
<path d="M7242 4793
L9816 4793
" />
<path d="M7242 3715
L7242 4793
" />
<path d="M9521 5652
L9521 6868
" />
<circle cx="10529.5" cy="6260.31" r="984.252" /> 
<path d="M9521.65 6868.51 A1177.17 1177.17 0.0 0 0 11706.7 6260.13" />
<path d="M11706.7 6260.49 A1177.17 1177.17 0.0 0 0 9521.65 5652.11" />
<path d="M5257 4968
L5257 3551
" />
<path d="M3505.91 4260.31 A1023.62 1023.62 0.0 0 0 5253.34 4984.12" />
<path d="M5253.34 3536.5 A1023.62 1023.62 0.0 0 0 3505.91 4260.31" />
</g>
<g style="fill:#363435; fill-opacity:0.0; 
stroke:#363435; stroke-width:59.0551; stroke-opacity:1; 
stroke-linecap:round; stroke-linejoin:round;">
<g transform="rotate(-90 2415.35 3760.31)">
<text x="2415.35" y="3957.16"
textLength="751.687" font-size="524.934" lengthAdjust="spacingAndGlyphs"
text-anchor="middle" opacity="0">J4</text>
</g>
<path d="M2199 3891
L2480 3891
L2537 3910
L2574 3947
L2593 4004
L2593 4041
" />
<path d="M2330 3535
L2593 3535
" />
<path d="M2181 3629
L2462 3722
L2462 3479
" />
<g transform="rotate(-90 2415.35 7760.31)">
<text x="2415.35" y="7957.16"
textLength="751.687" font-size="524.934" lengthAdjust="spacingAndGlyphs"
text-anchor="middle" opacity="0">J3</text>
</g>
<path d="M2199 7891
L2480 7891
L2537 7910
L2574 7947
L2593 8004
L2593 8041
" />
<path d="M2199 7741
L2199 7497
L2349 7629
L2349 7572
L2368 7535
L2387 7516
L2424 7497
L2518 7497
L2555 7516
L2574 7535
L2593 7572
L2593 7685
L2574 7722
L2555 7741
" />
<g transform="rotate(-90 12643.7 6260.31)">
<text x="12643.7" y="6457.16"
textLength="751.687" font-size="524.934" lengthAdjust="spacingAndGlyphs"
text-anchor="middle" opacity="0">J2</text>
</g>
<path d="M12428 6391
L12709 6391
L12765 6410
L12803 6447
L12821 6504
L12821 6541
" />
<path d="M12465 6222
L12446 6204
L12428 6166
L12428 6072
L12446 6035
L12465 6016
L12503 5997
L12540 5997
L12596 6016
L12821 6241
L12821 5997
" />
<g transform="rotate(-90 12643.7 4260.31)">
<text x="12643.7" y="4457.16"
textLength="751.687" font-size="524.934" lengthAdjust="spacingAndGlyphs"
text-anchor="middle" opacity="0">J1</text>
</g>
<path d="M12428 4391
L12709 4391
L12765 4410
L12803 4447
L12821 4504
L12821 4541
" />
<path d="M12821 3997
L12821 4222
" />
<path d="M12821 4110
L12428 4110
L12484 4147
L12521 4185
L12540 4222
" />
<text x="6529.53" y="5524.09"
textLength="845.426" font-size="524.934" lengthAdjust="spacingAndGlyphs"
text-anchor="middle" opacity="0">R2</text>
<path d="M6463 5505
L6332 5317
" />
<path d="M6238 5505
L6238 5111
L6388 5111
L6426 5130
L6445 5149
L6463 5186
L6463 5242
L6445 5280
L6426 5299
L6388 5317
L6238 5317
" />
<path d="M6613 5149
L6632 5130
L6670 5111
L6763 5111
L6801 5130
L6820 5149
L6838 5186
L6838 5224
L6820 5280
L6595 5505
L6838 5505
" />
<text x="8529.53" y="3518.19"
textLength="845.426" font-size="524.934" lengthAdjust="spacingAndGlyphs"
text-anchor="middle" opacity="0">R1</text>
<path d="M8463 3499
L8332 3311
" />
<path d="M8238 3499
L8238 3105
L8388 3105
L8426 3124
L8445 3143
L8463 3180
L8463 3236
L8445 3274
L8426 3293
L8388 3311
L8238 3311
" />
<path d="M8838 3499
L8613 3499
" />
<path d="M8726 3499
L8726 3105
L8688 3161
L8651 3199
L8613 3218
" />
<text x="10529.5" y="4898.11"
textLength="845.426" font-size="524.934" lengthAdjust="spacingAndGlyphs"
text-anchor="middle" opacity="0">D1</text>
<path d="M10238 4879
L10238 4485
L10332 4485
L10388 4504
L10426 4541
L10445 4579
L10463 4654
L10463 4710
L10445 4785
L10426 4823
L10388 4860
L10332 4879
L10238 4879
" />
<path d="M10838 4879
L10613 4879
" />
<path d="M10726 4879
L10726 4485
L10688 4541
L10651 4579
L10613 4598
" />
<g transform="rotate(-90 3127.95 4260.31)">
<text x="3127.95" y="4457.16"
textLength="864.173" font-size="524.934" lengthAdjust="spacingAndGlyphs"
text-anchor="middle" opacity="0">Q1</text>
</g>
<path d="M3343 4297
L3324 4335
L3287 4372
L3231 4429
L3212 4466
L3212 4504
" />
<path d="M3306 4485
L3287 4522
L3249 4560
L3174 4579
L3043 4579
L2968 4560
L2931 4522
L2912 4485
L2912 4410
L2931 4372
L2968 4335
L3043 4316
L3174 4316
L3249 4335
L3287 4372
L3306 4410
L3306 4485
" />
<path d="M3306 3941
L3306 4166
" />
<path d="M3306 4054
L2912 4054
L2968 4091
L3006 4129
L3024 4166
" />
<g >
</g>
</g>
<g style="fill:#000000; fill-opacity:0.0; 
stroke:#000000; stroke-width:59.0551; stroke-opacity:1; 
stroke-linecap:round; stroke-linejoin:round;">
<g >
</g>
<g >
</g>
<g >
</g>
<g >
</g>
<g >
</g>
<g >
</g>
<g >
</g>
<g >
</g>
<g >
</g>
<g >
</g>
<g >
</g>
</g>
<g style="fill:#000000; fill-opacity:0.0; 
stroke:#000000; stroke-width:59.0551; stroke-opacity:1; 
stroke-linecap:round; stroke-linejoin:round;">
</g>
<g style="fill:#C2C2C2; fill-opacity:0.0; 
stroke:#C2C2C2; stroke-width:59.0551; stroke-opacity:1; 
stroke-linecap:round; stroke-linejoin:round;">
<path d="M29 2760
L529 2760
" />
<path d="M29 9260
L29 2760
" />
<path d="M14529 9260
L29 9260
" />
<path d="M14529 8260
L14529 9260
" />
<path d="M14529 2760
L14529 8260
" />
<path d="M529 2760
L14529 2760
" />
<g >
</g>
<g >
</g>
<g >
</g>
<g >
</g>
<g >
</g>
<g >
</g>
<g >
</g>
<g >
</g>
<g >
</g>
</g>
<g style="fill:#000000; fill-opacity:0.0; 
stroke:#000000; stroke-width:59.0551; stroke-opacity:1; 
stroke-linecap:round; stroke-linejoin:round;">
<g >
</g>
<g >
</g>
<g >
</g>
<g >
</g>
<g >
</g>
<g >
</g>
<g >
</g>
<g >
</g>
<g >
</g>
</g> 
</svg>
